<svg width="0" height="0" class="hidden">
  <symbol fill="none" xmlns="http://www.w3.org/2000/svg" viewBox="0 0 42 42" id="phone">
    <path clip-rule="evenodd" d="M18.998 23.002c-2.047-2.047-3.591-4.34-4.617-6.666a1.31 1.31 0 01.291-1.447l1.433-1.431c1.174-1.175 1.174-2.835.149-3.861l-2.055-2.054a3.5 3.5 0 00-4.948 0L8.11 8.683c-1.297 1.297-1.838 3.168-1.488 5.023.865 4.573 3.521 9.58 7.807 13.865 4.286 4.286 9.292 6.942 13.865 7.807 1.855.35 3.726-.19 5.022-1.487l1.14-1.14a3.5 3.5 0 000-4.949l-2.053-2.052a2.624 2.624 0 00-3.712 0l-1.58 1.581a1.31 1.31 0 01-1.447.291c-2.326-1.027-4.619-2.573-6.666-4.62z" stroke-width="3" stroke-linecap="round" stroke-linejoin="round"></path>
  </symbol>

  <symbol fill="none" xmlns="http://www.w3.org/2000/svg" viewBox="0 0 24 25" id="checkmark">
    <path d="M18.5 8.5L10.5 16.5L6 12" stroke-width="2" stroke-linecap="round" stroke-linejoin="round"></path>
  </symbol>

  <symbol fill="none" xmlns="http://www.w3.org/2000/svg" viewBox="0 0 24 27" id="arrow-right">
      <path d="M19 12.5H5" stroke-width="2" stroke-linecap="round" stroke-linejoin="round"></path>
      <path d="M14 17.5L19 12.5" stroke-width="2" stroke-linecap="round" stroke-linejoin="round"></path>
      <path d="M14 7.5L19 12.5" stroke-width="2" stroke-linecap="round" stroke-linejoin="round"></path>
  </symbol>
</svg>