<svg width="202" height="38" viewBox="0 0 202 38" fill="none" xmlns="http://www.w3.org/2000/svg">
<g filter="url(#filter0_d_1_108)">
<path d="M11.2308 14.8799L7.90044 18.3023V23.676H4V2.66149H7.90044V13.4389L18.2816 2.66149H22.6621L13.8411 12.058L23.2022 23.676H18.6417L11.2308 14.8799Z" fill="white"/>
<path d="M31.2377 7.4648C33.5979 7.4648 35.3981 8.0352 36.6383 9.17598C37.8984 10.2968 38.5285 11.9979 38.5285 14.2795V23.676H34.9881V21.7246C34.5281 22.4251 33.868 22.9655 33.0079 23.3458C32.1678 23.706 31.1477 23.8861 29.9475 23.8861C28.7474 23.8861 27.6973 23.686 26.7972 23.2857C25.8971 22.8654 25.197 22.295 24.6969 21.5745C24.2169 20.834 23.9769 20.0035 23.9769 19.0828C23.9769 17.6418 24.5069 16.491 25.567 15.6304C26.6472 14.7498 28.3374 14.3095 30.6376 14.3095H34.7781V14.0694C34.7781 12.9486 34.438 12.088 33.758 11.4876C33.0979 10.8872 32.1078 10.587 30.7876 10.587C29.8875 10.587 28.9974 10.7271 28.1173 11.0072C27.2572 11.2874 26.5272 11.6777 25.9271 12.1781L24.4569 9.44617C25.297 8.80573 26.3071 8.31539 27.4873 7.97516C28.6674 7.63492 29.9175 7.4648 31.2377 7.4648ZM30.7276 21.1542C31.6677 21.1542 32.4978 20.9441 33.2179 20.5238C33.958 20.0835 34.478 19.4631 34.7781 18.6625V16.8012H30.9076C28.7474 16.8012 27.6673 17.5117 27.6673 18.9327C27.6673 19.6132 27.9373 20.1536 28.4774 20.5538C29.0174 20.9541 29.7675 21.1542 30.7276 21.1542Z" fill="white"/>
<path d="M52.2227 7.4648C53.7829 7.4648 55.173 7.80504 56.3932 8.48551C57.6333 9.16598 58.6034 10.1266 59.3035 11.3675C60.0036 12.6083 60.3536 14.0393 60.3536 15.6605C60.3536 17.2816 60.0036 18.7226 59.3035 19.9834C58.6034 21.2243 57.6333 22.185 56.3932 22.8654C55.173 23.5459 53.7829 23.8861 52.2227 23.8861C50.0625 23.8861 48.3523 23.1656 47.0921 21.7246V29.5H43.3417V7.64493H46.9121V9.74638C47.5322 8.98585 48.2923 8.41546 49.1924 8.0352C50.1125 7.65493 51.1226 7.4648 52.2227 7.4648ZM51.8027 20.6739C53.1828 20.6739 54.3129 20.2136 55.193 19.293C56.0931 18.3723 56.5432 17.1615 56.5432 15.6605C56.5432 14.1594 56.0931 12.9486 55.193 12.028C54.3129 11.1073 53.1828 10.647 51.8027 10.647C50.9026 10.647 50.0925 10.8571 49.3724 11.2774C48.6523 11.6777 48.0822 12.2581 47.6622 13.0186C47.2421 13.7792 47.0321 14.6598 47.0321 15.6605C47.0321 16.6611 47.2421 17.5418 47.6622 18.3023C48.0822 19.0628 48.6523 19.6532 49.3724 20.0735C50.0925 20.4738 50.9026 20.6739 51.8027 20.6739Z" fill="white"/>
<path d="M63.9104 7.64493H67.6609V23.676H63.9104V7.64493ZM65.8006 5.0031C65.1206 5.0031 64.5505 4.79296 64.0904 4.37267C63.6304 3.93237 63.4004 3.39199 63.4004 2.75155C63.4004 2.11111 63.6304 1.58074 64.0904 1.16045C64.5505 0.720151 65.1206 0.5 65.8006 0.5C66.4807 0.5 67.0508 0.710145 67.5108 1.13043C67.9709 1.53071 68.2009 2.04106 68.2009 2.66149C68.2009 3.32194 67.9709 3.88233 67.5108 4.34265C67.0708 4.78295 66.5007 5.0031 65.8006 5.0031Z" fill="white"/>
<path d="M81.4643 7.4648C83.0245 7.4648 84.4146 7.80504 85.6348 8.48551C86.8749 9.16598 87.845 10.1266 88.5451 11.3675C89.2452 12.6083 89.5952 14.0393 89.5952 15.6605C89.5952 17.2816 89.2452 18.7226 88.5451 19.9834C87.845 21.2243 86.8749 22.185 85.6348 22.8654C84.4146 23.5459 83.0245 23.8861 81.4643 23.8861C80.3642 23.8861 79.354 23.696 78.4339 23.3157C77.5338 22.9355 76.7738 22.3651 76.1537 21.6046V23.676H72.5833V1.40062H76.3337V9.59627C76.9738 8.89579 77.7239 8.36542 78.584 8.00518C79.4641 7.64493 80.4242 7.4648 81.4643 7.4648ZM81.0442 20.6739C82.4244 20.6739 83.5545 20.2136 84.4346 19.293C85.3347 18.3723 85.7848 17.1615 85.7848 15.6605C85.7848 14.1594 85.3347 12.9486 84.4346 12.028C83.5545 11.1073 82.4244 10.647 81.0442 10.647C80.1441 10.647 79.334 10.8571 78.614 11.2774C77.8939 11.6777 77.3238 12.2581 76.9038 13.0186C76.4837 13.7792 76.2737 14.6598 76.2737 15.6605C76.2737 16.6611 76.4837 17.5418 76.9038 18.3023C77.3238 19.0628 77.8939 19.6532 78.614 20.0735C79.334 20.4738 80.1441 20.6739 81.0442 20.6739Z" fill="white"/>
<path d="M99.0676 7.4648C101.428 7.4648 103.228 8.0352 104.468 9.17598C105.728 10.2968 106.358 11.9979 106.358 14.2795V23.676H102.818V21.7246C102.358 22.4251 101.698 22.9655 100.838 23.3458C99.9977 23.706 98.9776 23.8861 97.7775 23.8861C96.5773 23.8861 95.5272 23.686 94.6271 23.2857C93.727 22.8654 93.0269 22.295 92.5269 21.5745C92.0468 20.834 91.8068 20.0035 91.8068 19.0828C91.8068 17.6418 92.3368 16.491 93.3969 15.6304C94.4771 14.7498 96.1673 14.3095 98.4675 14.3095H102.608V14.0694C102.608 12.9486 102.268 12.088 101.588 11.4876C100.928 10.8872 99.9377 10.587 98.6175 10.587C97.7174 10.587 96.8273 10.7271 95.9472 11.0072C95.0871 11.2874 94.3571 11.6777 93.757 12.1781L92.2868 9.44617C93.1269 8.80573 94.137 8.31539 95.3172 7.97516C96.4973 7.63492 97.7475 7.4648 99.0676 7.4648ZM98.5575 21.1542C99.4976 21.1542 100.328 20.9441 101.048 20.5238C101.788 20.0835 102.308 19.4631 102.608 18.6625V16.8012H98.7376C96.5773 16.8012 95.4972 17.5117 95.4972 18.9327C95.4972 19.6132 95.7672 20.1536 96.3073 20.5538C96.8473 20.9541 97.5974 21.1542 98.5575 21.1542Z" fill="white"/>
<path d="M114.742 9.98654C115.822 8.30538 117.722 7.4648 120.443 7.4648V11.0373C120.123 10.9772 119.833 10.9472 119.573 10.9472C118.112 10.9472 116.972 11.3775 116.152 12.2381C115.332 13.0787 114.922 14.2995 114.922 15.9006V23.676H111.172V7.64493H114.742V9.98654Z" fill="white"/>
<path d="M129.657 7.4648C132.017 7.4648 133.817 8.0352 135.058 9.17598C136.318 10.2968 136.948 11.9979 136.948 14.2795V23.676H133.407V21.7246C132.947 22.4251 132.287 22.9655 131.427 23.3458C130.587 23.706 129.567 23.8861 128.367 23.8861C127.167 23.8861 126.117 23.686 125.216 23.2857C124.316 22.8654 123.616 22.295 123.116 21.5745C122.636 20.834 122.396 20.0035 122.396 19.0828C122.396 17.6418 122.926 16.491 123.986 15.6304C125.066 14.7498 126.757 14.3095 129.057 14.3095H133.197V14.0694C133.197 12.9486 132.857 12.088 132.177 11.4876C131.517 10.8872 130.527 10.587 129.207 10.587C128.307 10.587 127.417 10.7271 126.537 11.0072C125.677 11.2874 124.946 11.6777 124.346 12.1781L122.876 9.44617C123.716 8.80573 124.726 8.31539 125.907 7.97516C127.087 7.63492 128.337 7.4648 129.657 7.4648ZM129.147 21.1542C130.087 21.1542 130.917 20.9441 131.637 20.5238C132.377 20.0835 132.897 19.4631 133.197 18.6625V16.8012H129.327C127.167 16.8012 126.087 17.5117 126.087 18.9327C126.087 19.6132 126.357 20.1536 126.897 20.5538C127.437 20.9541 128.187 21.1542 129.147 21.1542Z" fill="white"/>
<path d="M145.016 2.66149H148.916V20.3737H159.898V23.676H145.016V2.66149Z" fill="white"/>
<path d="M168.884 7.4648C171.244 7.4648 173.045 8.0352 174.285 9.17598C175.545 10.2968 176.175 11.9979 176.175 14.2795V23.676H172.634V21.7246C172.174 22.4251 171.514 22.9655 170.654 23.3458C169.814 23.706 168.794 23.8861 167.594 23.8861C166.394 23.8861 165.344 23.686 164.444 23.2857C163.543 22.8654 162.843 22.295 162.343 21.5745C161.863 20.834 161.623 20.0035 161.623 19.0828C161.623 17.6418 162.153 16.491 163.213 15.6304C164.294 14.7498 165.984 14.3095 168.284 14.3095H172.424V14.0694C172.424 12.9486 172.084 12.088 171.404 11.4876C170.744 10.8872 169.754 10.587 168.434 10.587C167.534 10.587 166.644 10.7271 165.764 11.0072C164.904 11.2874 164.174 11.6777 163.573 12.1781L162.103 9.44617C162.943 8.80573 163.954 8.31539 165.134 7.97516C166.314 7.63492 167.564 7.4648 168.884 7.4648ZM168.374 21.1542C169.314 21.1542 170.144 20.9441 170.864 20.5238C171.604 20.0835 172.124 19.4631 172.424 18.6625V16.8012H168.554C166.394 16.8012 165.314 17.5117 165.314 18.9327C165.314 19.6132 165.584 20.1536 166.124 20.5538C166.664 20.9541 167.414 21.1542 168.374 21.1542Z" fill="white"/>
<path d="M189.869 7.4648C191.429 7.4648 192.819 7.80504 194.04 8.48551C195.28 9.16598 196.25 10.1266 196.95 11.3675C197.65 12.6083 198 14.0393 198 15.6605C198 17.2816 197.65 18.7226 196.95 19.9834C196.25 21.2243 195.28 22.185 194.04 22.8654C192.819 23.5459 191.429 23.8861 189.869 23.8861C188.769 23.8861 187.759 23.696 186.839 23.3157C185.939 22.9355 185.179 22.3651 184.558 21.6046V23.676H180.988V1.40062H184.739V9.59627C185.379 8.89579 186.129 8.36542 186.989 8.00518C187.869 7.64493 188.829 7.4648 189.869 7.4648ZM189.449 20.6739C190.829 20.6739 191.959 20.2136 192.839 19.293C193.74 18.3723 194.19 17.1615 194.19 15.6605C194.19 14.1594 193.74 12.9486 192.839 12.028C191.959 11.1073 190.829 10.647 189.449 10.647C188.549 10.647 187.739 10.8571 187.019 11.2774C186.299 11.6777 185.729 12.2581 185.309 13.0186C184.889 13.7792 184.678 14.6598 184.678 15.6605C184.678 16.6611 184.889 17.5418 185.309 18.3023C185.729 19.0628 186.299 19.6532 187.019 20.0735C187.739 20.4738 188.549 20.6739 189.449 20.6739Z" fill="white"/>
<path d="M84.189 15.6705C84.189 17.3285 82.8457 18.6725 81.1887 18.6725C79.5317 18.6725 78.1884 17.3285 78.1884 15.6705C78.1884 14.0125 79.5317 12.6684 81.1887 12.6684C82.8457 12.6684 84.189 14.0125 84.189 15.6705Z" fill="white"/>
</g>
<defs>
<filter id="filter0_d_1_108" x="0" y="0.5" width="202" height="37" filterUnits="userSpaceOnUse" color-interpolation-filters="sRGB">
<feFlood flood-opacity="0" result="BackgroundImageFix"/>
<feColorMatrix in="SourceAlpha" type="matrix" values="0 0 0 0 0 0 0 0 0 0 0 0 0 0 0 0 0 0 127 0" result="hardAlpha"/>
<feOffset dy="4"/>
<feGaussianBlur stdDeviation="2"/>
<feComposite in2="hardAlpha" operator="out"/>
<feColorMatrix type="matrix" values="0 0 0 0 0 0 0 0 0 0 0 0 0 0 0 0 0 0 0.25 0"/>
<feBlend mode="normal" in2="BackgroundImageFix" result="effect1_dropShadow_1_108"/>
<feBlend mode="normal" in="SourceGraphic" in2="effect1_dropShadow_1_108" result="shape"/>
</filter>
</defs>
</svg>
